<svg class="svg-icon" style="width: 1em; height: 1em;vertical-align: middle;fill: currentColor;overflow: hidden;" viewBox="0 0 1024 1024" version="1.1" xmlns="http://www.w3.org/2000/svg"><path d="M512 981.333333c-8.533333 0-12.8 0-21.333333-4.266666-12.8-8.533333-21.333333-21.333333-21.333334-38.4v-332.8l-209.066666 174.933333c-17.066667 17.066667-46.933333 12.8-59.733334-4.266667-17.066667-17.066667-12.8-46.933333 4.266667-59.733333l238.933333-200.533333-234.666666-204.8c-17.066667-17.066667-21.333333-42.666667-4.266667-59.733334 17.066667-17.066667 42.666667-21.333333 59.733333-4.266666l204.8 170.666666V85.333333c0-17.066667 8.533333-29.866667 21.333334-38.4 12.8-8.533333 29.866667-4.266667 42.666666 4.266667L810.666667 243.2c12.8 8.533333 17.066667 21.333333 17.066666 34.133333 0 12.8-4.266667 25.6-17.066666 34.133334L576 512l238.933333 200.533333c8.533333 8.533333 17.066667 21.333333 17.066667 34.133334 0 12.8-8.533333 25.6-17.066667 34.133333l-277.333333 192c-8.533333 4.266667-17.066667 8.533333-25.6 8.533333z m42.666667-375.466666v251.733333l166.4-115.2-166.4-136.533333z m0-439.466667v251.733333l166.4-140.8L554.666667 166.4z"  /></svg>